<?xml version="1.0" encoding="UTF-8" standalone="no"?>
<svg
   xmlns:dc="http://purl.org/dc/elements/1.1/"
   xmlns:cc="http://creativecommons.org/ns#"
   xmlns:rdf="http://www.w3.org/1999/02/22-rdf-syntax-ns#"
   xmlns:svg="http://www.w3.org/2000/svg"
   xmlns="http://www.w3.org/2000/svg"
   xmlns:sodipodi="http://sodipodi.sourceforge.net/DTD/sodipodi-0.dtd"
   xmlns:inkscape="http://www.inkscape.org/namespaces/inkscape"
   viewBox="0 0 1140 360"
   enable-background="new 0 0 1140 360"
   version="1.1"
   id="svg3836"
   sodipodi:docname="banner2.svg"
   inkscape:version="0.92.2 (5c3e80d, 2017-08-06)">
  <metadata
     id="metadata3842">
    <rdf:RDF>
      <cc:Work
         rdf:about="">
        <dc:format>image/svg+xml</dc:format>
        <dc:type
           rdf:resource="http://purl.org/dc/dcmitype/StillImage" />
      </cc:Work>
    </rdf:RDF>
  </metadata>
  <defs
     id="defs3840" />
  <sodipodi:namedview
     pagecolor="#ffffff"
     bordercolor="#666666"
     borderopacity="1"
     objecttolerance="10"
     gridtolerance="10"
     guidetolerance="10"
     inkscape:pageopacity="0"
     inkscape:pageshadow="2"
     inkscape:window-width="1366"
     inkscape:window-height="705"
     id="namedview3838"
     showgrid="false"
     inkscape:zoom="0.35603447"
     inkscape:cx="761.76038"
     inkscape:cy="343.11867"
     inkscape:window-x="-8"
     inkscape:window-y="-8"
     inkscape:window-maximized="1"
     inkscape:current-layer="svg3836" />
  <path
     fill="#68217A"
     d="M0 0h1140v360h-1140v-360z"
     id="path3788"
     style="fill:#7a214e;fill-opacity:1" />
  <path
     d="m 841.20457,286.00278 c 0,0.49143 -0.21057,0.89957 -0.63085,1.22372 -0.42285,0.32623 -0.92102,0.48866 -1.49965,0.48866 -0.59318,0 -1.09306,-0.15757 -1.49964,-0.47269 -0.4083,-0.31374 -0.61202,-0.72743 -0.61202,-1.23969 0,-0.45811 0.2003,-0.85653 0.60174,-1.19179 0.40059,-0.33595 0.90476,-0.50462 1.51078,-0.50462 0.60431,0 1.11189,0.1659 1.51933,0.49629 0.40659,0.33109 0.61031,0.7316 0.61031,1.20012 z m 151.75367,0 c 0,0.49143 -0.2097,0.89957 -0.6308,1.22372 -0.4229,0.32623 -0.921,0.48866 -1.4997,0.48866 -0.5932,0 -1.093,-0.15757 -1.4996,-0.47269 -0.4083,-0.31374 -0.612,-0.72743 -0.612,-1.23969 0,-0.45811 0.2003,-0.85653 0.6017,-1.19179 0.4006,-0.33595 0.9048,-0.50462 1.5108,-0.50462 0.6043,0 1.1119,0.1659 1.5193,0.49629 0.4066,0.33109 0.6103,0.7316 0.6103,1.20012 z m -158.1734,-1.17791 -10.45645,22.94179 h -3.63014 l -10.2784,-22.94179 h 3.6892 l 8.42439,19.58229 h 0.0788 l 8.62126,-19.58229 z m 5.83938,22.94179 h -3.23554 v -16.38243 h 3.23554 z m 16.41139,-4.38401 c 0,1.41876 -0.6745,2.57029 -2.02179,3.45528 -1.34814,0.88569 -3.14053,1.32784 -5.37631,1.32784 -1.90708,0 -3.57792,-0.3304 -5.0108,-0.99189 v -2.81531 c 1.59123,1.04533 3.34082,1.5673 5.24791,1.5673 2.56446,0 3.8467,-0.76213 3.8467,-2.28779 0,-0.61845 -0.24995,-1.12238 -0.74983,-1.51178 -0.49988,-0.38939 -1.63746,-0.91414 -3.41358,-1.57563 -1.78896,-0.61845 -3.05151,-1.28272 -3.78764,-1.9921 -0.73698,-0.70938 -1.10505,-1.6506 -1.10505,-2.82365 0,-1.35421 0.67108,-2.48492 2.01237,-3.39143 1.3413,-0.90651 3.04467,-1.35976 5.1101,-1.35976 1.59124,0 3.03183,0.25613 4.32091,0.76769 v 2.6397 c -1.31562,-0.7781 -2.84095,-1.16749 -4.57684,-1.16749 -1.06482,0 -1.92335,0.21378 -2.57474,0.63997 -0.65138,0.42618 -0.97665,0.97592 -0.97665,1.64782 0,0.72535 0.24994,1.28272 0.74982,1.67142 0.49989,0.3894 1.53218,0.85098 3.09773,1.38406 1.91993,0.66149 3.26807,1.35421 4.04443,2.07956 0.7755,0.72604 1.16326,1.6381 1.16326,2.73619 z m 19.72224,4.38401 h -3.23554 v -2.59182 h -0.0788 c -1.34129,1.99419 -3.41272,2.99162 -6.21429,2.99162 -4.82678,0 -7.24059,-2.33013 -7.24059,-6.99109 v -9.79114 h 3.23554 v 9.37537 c 0,3.44557 1.63061,5.16697 4.89268,5.16697 1.60494,0 2.90686,-0.472 3.90662,-1.41599 0.99977,-0.94399 1.49965,-2.17257 1.49965,-3.68782 v -9.43853 h 3.23554 v 16.38243 z m 19.44406,0 h -3.23554 v -2.55989 h -0.0788 c -1.4072,1.97336 -3.47863,2.95969 -6.21429,2.95969 -1.94646,0 -3.50517,-0.42896 -4.67527,-1.28757 -1.17096,-0.85862 -1.75558,-2.01293 -1.75558,-3.46362 0,-3.04993 2.22294,-4.83171 6.66881,-5.34327 l 6.0568,-0.68787 c 0,-2.77297 -1.38752,-4.15981 -4.16255,-4.15981 -2.43351,0 -4.62991,0.66635 -6.58921,1.99974 v -2.6876 c 0.59233,-0.36233 1.60493,-0.71216 3.03781,-1.04811 1.43374,-0.33595 2.70913,-0.50393 3.82787,-0.50393 4.74803,0 7.12247,2.04277 7.12247,6.12762 v 10.65462 z m -3.23554,-8.2877 -4.89268,0.56015 c -1.67084,0.19157 -2.84094,0.51434 -3.51202,0.96759 -0.67107,0.45326 -1.00661,1.18693 -1.00661,2.20034 0,0.82113 0.36121,1.47984 1.08536,1.97544 0.72329,0.49559 1.6503,0.74339 2.78188,0.74339 1.60493,0 2.92996,-0.45811 3.97509,-1.37573 1.04599,-0.91692 1.56813,-2.06359 1.56813,-3.44002 v -1.63116 z m 11.2388,8.2877 h -3.23554 V 283.513 h 3.23554 z m 25.5719,-5.79167 c 0,1.93032 -0.84141,3.44557 -2.52509,4.54365 -1.68368,1.09878 -3.97253,1.64782 -6.86568,1.64782 -1.05284,0 -2.2392,-0.14159 -3.56081,-0.4241 -1.3216,-0.2825 -2.25888,-0.57819 -2.81098,-0.88777 v -3.18389 c 0.80204,0.58653 1.85744,1.07726 3.16621,1.47221 1.30876,0.39495 2.52851,0.59208 3.6601,0.59208 3.63014,0 5.44478,-1.14667 5.44478,-3.44002 0,-0.95995 -0.38775,-1.78386 -1.16411,-2.47173 -0.77636,-0.68786 -2.3676,-1.59229 -4.77457,-2.71189 -2.32736,-1.06616 -3.95882,-2.07956 -4.89268,-3.03952 -0.93386,-0.95996 -1.40121,-2.12745 -1.40121,-3.50387 0,-1.81302 0.83542,-3.28732 2.5054,-4.42358 1.66999,-1.13626 3.82787,-1.70404 6.47108,-1.70404 2.53793,0 4.39281,0.27209 5.56376,0.81627 v 3.00759 c -1.47311,-0.93844 -3.38704,-1.40766 -5.74094,-1.40766 -1.56556,0 -2.84437,0.31721 -3.83728,0.95163 -0.99292,0.63441 -1.48938,1.47429 -1.48938,2.51962 0,0.75728 0.14808,1.36532 0.44425,1.82343 0.29616,0.45881 0.79604,0.91207 1.49964,1.35977 0.7036,0.4484 1.89083,1.05088 3.56081,1.80747 2.49856,1.1307 4.24815,2.19755 5.24791,3.19985 0.99891,1.00369 1.49879,2.15522 1.49879,3.45668 z m 12.9687,5.63133 c -0.77636,0.35191 -1.78896,0.52822 -3.03781,0.52822 -3.52486,0 -5.28729,-1.61034 -5.28729,-4.83172 v -9.69466 h -3.47264 v -2.22393 h 3.47264 v -3.99947 l 3.23554,-0.84751 v 4.84698 h 5.08956 v 2.22393 h -5.08956 v 9.24696 c 0,1.09878 0.23026,1.88035 0.69077,2.34402 0.4605,0.46366 1.23001,0.69619 2.30853,0.69619 0.80204,0 1.49965,-0.1763 2.09112,-0.52822 v 2.23921 z m 19.50994,0.16034 h -3.23551 v -2.59182 h -0.0788 c -1.34129,1.99419 -3.41272,2.99162 -6.21429,2.99162 -4.82678,0 -7.2406,-2.33013 -7.2406,-6.99109 v -9.79114 h 3.23555 v 9.37537 c 0,3.44557 1.63061,5.16697 4.89268,5.16697 1.60408,0 2.90685,-0.472 3.90576,-1.41599 0.99977,-0.94399 1.49965,-2.17257 1.49965,-3.68782 v -9.43853 h 3.23551 z m 22.14463,0 h -3.2355 v -2.78409 h -0.079 c -1.4996,2.1226 -3.8142,3.18389 -6.94442,3.18389 -2.55163,0 -4.58368,-0.74339 -6.09617,-2.23156 -1.51249,-1.48749 -2.26916,-3.47403 -2.26916,-5.95965 0,-2.70842 0.83885,-4.88446 2.51568,-6.52743 1.67683,-1.64226 3.92288,-2.4634 6.73727,-2.4634 2.7622,0 4.7806,0.88569 6.0568,2.65567 h 0.079 V 283.513 h 3.2355 z m -3.2355,-7.40756 v -2.41551 c 0,-1.35422 -0.5564,-2.47937 -1.6675,-3.37547 -1.1119,-0.8961 -2.4634,-1.3438 -4.0547,-1.3438 -1.94642,0 -3.49143,0.58375 -4.63585,1.75194 -1.14443,1.16819 -1.71621,2.78686 -1.71621,4.85531 0,1.87757 0.53926,3.36228 1.61777,4.4555 1.07852,1.09323 2.53194,1.64019 4.36029,1.64019 1.7753,0 3.2355,-0.52197 4.38,-1.5673 1.1444,-1.04672 1.7162,-2.37942 1.7162,-4.00086 z m 11.3689,7.40756 h -3.2356 v -16.38243 h 3.2356 z m 23.56976,-8.25507 c 0,2.60222 -0.9108,4.69566 -2.7323,6.27962 -1.8215,1.58397 -4.2644,2.37595 -7.3296,2.37595 -2.9856,0 -5.3694,-0.77047 -7.15156,-2.31139 -1.7821,-1.54093 -2.6731,-3.56982 -2.6731,-6.08736 0,-2.70912 0.9141,-4.84976 2.7425,-6.42331 1.82746,-1.57286 4.34656,-2.35998 7.55636,-2.35998 2.9985,0 5.3464,0.76005 7.0429,2.28015 1.6965,1.51872 2.5448,3.60106 2.5448,6.24632 z m -3.3143,0.0958 c 0,-2.05804 -0.5624,-3.63714 -1.6871,-4.73592 -1.1248,-1.09809 -2.7323,-1.64782 -4.8234,-1.64782 -2.0783,0 -3.7226,0.56292 -4.932,1.68808 -1.2104,1.12515 -1.81466,2.7112 -1.81466,4.75952 0,1.96295 0.60776,3.49555 1.82486,4.59919 1.2164,1.10363 2.8572,1.65545 4.9227,1.65545 2.1039,0 3.7157,-0.54418 4.8336,-1.63185 1.1162,-1.08698 1.676,-2.64943 1.676,-4.68665 z m -228.37694,-22.43369 -18.71649,15.17745 -11.93726,-7.52903 -4.71551,1.91158 v 19.1207 l 4.71551,1.91228 11.93726,-7.52973 18.71649,15.17745 11.79004,-3.82386 v -30.59298 z m -30.65375,24.85684 v -11.47228 l 7.07453,5.73683 z m 18.19007,-5.73545 12.46368,-7.86151 v 15.72233 z"
     id="path3832"
     inkscape:connector-curvature="0"
     style="fill:#ffffff;stroke-width:0.77080095" />
  <text
     xml:space="preserve"
     style="font-style:normal;font-weight:normal;font-size:65.13401794px;line-height:1.25;font-family:sans-serif;letter-spacing:0px;word-spacing:0px;fill:#ffffff;fill-opacity:1;stroke:none;stroke-width:1.6283505"
     x="304.61618"
     y="98.132706"
     id="text3846"
     transform="scale(0.62906315,1.5896655)"><tspan
       sodipodi:role="line"
       x="304.61618"
       y="98.132706"
       style="font-style:normal;font-variant:normal;font-weight:normal;font-stretch:normal;font-size:86.8453598px;font-family:'Wide Latin';-inkscape-font-specification:'Wide Latin';fill:#ffffff;stroke-width:1.6283505"
       id="tspan3848">Full open source</tspan></text>
  <text
     xml:space="preserve"
     style="font-style:normal;font-weight:normal;font-size:40.00226212px;line-height:1.25;font-family:sans-serif;letter-spacing:0px;word-spacing:0px;fill:#ffffff;fill-opacity:1;stroke:none;stroke-width:1.00005662"
     x="954.79761"
     y="153.41985"
     id="text3846-9"
     transform="scale(0.60698455,1.6474884)"><tspan
       sodipodi:role="line"
       x="954.79761"
       y="153.41985"
       style="font-style:normal;font-variant:normal;font-weight:normal;font-stretch:normal;font-size:53.33634949px;font-family:'Wide Latin';-inkscape-font-specification:'Wide Latin';fill:#ffffff;stroke-width:1.00005662"
       id="tspan3848-9">Made with C# </tspan></text>
</svg>
