<?xml version="1.0" encoding="UTF-8" standalone="no"?>
<svg
   xmlns:dc="http://purl.org/dc/elements/1.1/"
   xmlns:cc="http://creativecommons.org/ns#"
   xmlns:rdf="http://www.w3.org/1999/02/22-rdf-syntax-ns#"
   xmlns:svg="http://www.w3.org/2000/svg"
   xmlns="http://www.w3.org/2000/svg"
   xmlns:sodipodi="http://sodipodi.sourceforge.net/DTD/sodipodi-0.dtd"
   xmlns:inkscape="http://www.inkscape.org/namespaces/inkscape"
   viewBox="0 0 1140 360"
   enable-background="new 0 0 1140 360"
   version="1.1"
   id="svg3836"
   sodipodi:docname="banner2.svg"
   inkscape:version="0.92.2 (5c3e80d, 2017-08-06)">
  <metadata
     id="metadata3842">
    <rdf:RDF>
      <cc:Work
         rdf:about="">
        <dc:format>image/svg+xml</dc:format>
        <dc:type
           rdf:resource="http://purl.org/dc/dcmitype/StillImage" />
      </cc:Work>
    </rdf:RDF>
  </metadata>
  <defs
     id="defs3840" />
  <sodipodi:namedview
     pagecolor="#ffffff"
     bordercolor="#666666"
     borderopacity="1"
     objecttolerance="10"
     gridtolerance="10"
     guidetolerance="10"
     inkscape:pageopacity="0"
     inkscape:pageshadow="2"
     inkscape:window-width="1366"
     inkscape:window-height="705"
     id="namedview3838"
     showgrid="false"
     inkscape:zoom="0.71206894"
     inkscape:cx="761.96561"
     inkscape:cy="264.63202"
     inkscape:window-x="-8"
     inkscape:window-y="-8"
     inkscape:window-maximized="1"
     inkscape:current-layer="svg3836" />
  <path
     d="M0 0h1140v360h-1140v-360z"
     id="path3788"
     style="fill:#7a214e;fill-opacity:1"
     fill="#68217A" />
  <path
     d="m 944.41196,317.76194 c 0,0.38315 -0.16417,0.70135 -0.49184,0.95408 -0.32968,0.25435 -0.71808,0.38099 -1.16921,0.38099 -0.46248,0 -0.85221,-0.12285 -1.1692,-0.36854 -0.31834,-0.24461 -0.47717,-0.56714 -0.47717,-0.96653 0,-0.35717 0.15617,-0.6678 0.46915,-0.92918 0.31232,-0.26193 0.7054,-0.39343 1.17789,-0.39343 0.47115,0 0.86689,0.12934 1.18455,0.38693 0.317,0.25814 0.47583,0.5704 0.47583,0.93568 z m 118.31554,0 c 0,0.38315 -0.1635,0.70135 -0.4918,0.95408 -0.3297,0.25435 -0.7181,0.38099 -1.1693,0.38099 -0.4624,0 -0.8521,-0.12285 -1.1691,-0.36854 -0.3184,-0.24461 -0.4772,-0.56714 -0.4772,-0.96653 0,-0.35717 0.1562,-0.6678 0.4691,-0.92918 0.3124,-0.26193 0.7055,-0.39343 1.1779,-0.39343 0.4712,0 0.8669,0.12934 1.1846,0.38693 0.317,0.25814 0.4758,0.5704 0.4758,0.93568 z m -123.32071,-0.91836 -8.15242,17.88668 h -2.83026 l -8.0136,-17.88668 h 2.8763 l 6.56812,15.26743 h 0.0614 l 6.72161,-15.26743 z m 4.5527,17.88668 h -2.5226 v -12.77265 h 2.5226 z m 12.79522,-3.41802 c 0,1.10615 -0.52587,2.00394 -1.5763,2.69393 -1.05108,0.69053 -2.44853,1.03525 -4.19166,1.03525 -1.48687,0 -2.78955,-0.25759 -3.9067,-0.77333 v -2.19497 c 1.24061,0.815 2.60469,1.22196 4.09156,1.22196 1.9994,0 2.9991,-0.5942 2.9991,-1.78369 0,-0.48218 -0.19487,-0.87507 -0.58461,-1.17867 -0.38973,-0.30359 -1.27665,-0.71271 -2.66141,-1.22845 -1.39477,-0.48217 -2.37913,-1.00007 -2.95306,-1.55315 -0.57459,-0.55307 -0.86155,-1.28689 -0.86155,-2.20147 0,-1.05581 0.52321,-1.93738 1.56895,-2.64414 1.04575,-0.70677 2.37379,-1.06015 3.98412,-1.06015 1.24061,0 2.36378,0.1997 3.36881,0.59854 v 2.05805 c -1.02573,-0.60665 -2.21496,-0.91024 -3.56835,-0.91024 -0.83019,0 -1.49955,0.16668 -2.00741,0.49896 -0.50785,0.33227 -0.76145,0.76088 -0.76145,1.28473 0,0.56552 0.19487,1.00008 0.5846,1.30313 0.38974,0.3036 1.19457,0.66347 2.41516,1.07909 1.49688,0.51573 2.54797,1.05582 3.15326,1.62134 0.60462,0.56606 0.90694,1.27715 0.90694,2.13328 z m 15.37654,3.41802 h -2.5226 v -2.02073 h -0.0614 c -1.04574,1.55478 -2.66074,2.33243 -4.845,2.33243 -3.76322,0 -5.64516,-1.81669 -5.64516,-5.45063 v -7.63372 h 2.5226 v 7.30956 c 0,2.68635 1.27132,4.02845 3.81461,4.02845 1.25129,0 2.26634,-0.368 3.04581,-1.10398 0.77948,-0.73599 1.16921,-1.69386 1.16921,-2.87523 v -7.3588 h 2.52261 v 12.77265 z m 15.15966,0 h -2.5226 v -1.99583 h -0.0614 c -1.09713,1.53854 -2.71213,2.30753 -4.845,2.30753 -1.51757,0 -2.73283,-0.33444 -3.6451,-1.00386 -0.91294,-0.66942 -1.36875,-1.56939 -1.36875,-2.70043 0,-2.37789 1.73313,-3.76706 5.19937,-4.1659 l 4.72222,-0.5363 c 0,-2.16196 -1.08179,-3.24322 -3.24535,-3.24322 -1.8973,0 -3.60974,0.51952 -5.13731,1.55911 v -2.0954 c 0.46181,-0.2825 1.25129,-0.55524 2.36844,-0.81717 1.11782,-0.26192 2.11219,-0.39289 2.98442,-0.39289 3.70182,0 5.55307,1.59266 5.55307,4.77743 v 8.30693 z m -2.5226,-6.46155 -3.81461,0.43672 c -1.30267,0.14936 -2.21495,0.40101 -2.73816,0.75439 -0.5232,0.35339 -0.78481,0.9254 -0.78481,1.71551 0,0.64019 0.28162,1.15376 0.84621,1.54016 0.56391,0.38639 1.28666,0.57959 2.1689,0.57959 1.2513,0 2.28436,-0.35717 3.0992,-1.0726 0.81551,-0.71488 1.2226,-1.60889 1.2226,-2.68203 v -1.27174 z m 8.76238,6.46155 h -2.5226 v -18.90949 h 2.5226 z m 19.93731,-4.51551 c 0,1.50499 -0.656,2.68636 -1.9687,3.54248 -1.3127,0.85667 -3.0972,1.28473 -5.3529,1.28473 -0.8208,0 -1.7458,-0.11039 -2.7762,-0.33065 -1.0304,-0.22025 -1.7612,-0.45079 -2.1916,-0.69215 v -2.48234 c 0.6253,0.45729 1.4482,0.83989 2.4685,1.14782 1.0204,0.30792 1.9714,0.46162 2.8536,0.46162 2.8303,0 4.2451,-0.89401 4.2451,-2.68203 0,-0.74843 -0.3023,-1.3908 -0.9076,-1.9271 -0.6053,-0.53629 -1.8459,-1.24144 -3.7225,-2.11434 -1.8145,-0.83123 -3.0865,-1.62134 -3.8146,-2.36977 -0.7281,-0.74844 -1.0925,-1.65868 -1.0925,-2.73181 0,-1.41353 0.6514,-2.56298 1.9533,-3.44887 1.3021,-0.88589 2.9845,-1.32856 5.0453,-1.32856 1.9787,0 3.4248,0.21213 4.3378,0.63641 v 2.34488 c -1.1485,-0.73166 -2.6408,-1.09749 -4.476,-1.09749 -1.2205,0 -2.2176,0.24731 -2.9917,0.74194 -0.7742,0.49462 -1.1612,1.14944 -1.1612,1.96444 0,0.59041 0.1155,1.06447 0.3463,1.42164 0.231,0.35772 0.6207,0.7111 1.1693,1.06015 0.5485,0.3496 1.4741,0.81933 2.7762,1.40921 1.9479,0.88155 3.312,1.71333 4.0915,2.49478 0.7788,0.78253 1.1686,1.68032 1.1686,2.69501 z m 10.1111,4.3905 c -0.6053,0.27437 -1.3948,0.41183 -2.3685,0.41183 -2.7482,0 -4.1222,-1.25551 -4.1222,-3.76708 v -7.55849 h -2.7075 v -1.7339 h 2.7075 v -3.1182 l 2.5225,-0.66077 v 3.77897 h 3.9682 v 1.7339 h -3.9682 v 7.20944 c 0,0.85667 0.1796,1.46602 0.5386,1.82753 0.3591,0.36149 0.959,0.54279 1.7999,0.54279 0.6253,0 1.1692,-0.13746 1.6303,-0.41183 v 1.74581 z m 15.211,0.12501 h -2.5226 v -2.02073 h -0.062 c -1.0458,1.55478 -2.6607,2.33243 -4.845,2.33243 -3.7632,0 -5.6452,-1.81669 -5.6452,-5.45063 v -7.63372 h 2.5227 v 7.30956 c 0,2.68635 1.2713,4.02845 3.8146,4.02845 1.2506,0 2.2663,-0.368 3.0451,-1.10398 0.7795,-0.73599 1.1692,-1.69386 1.1692,-2.87523 v -7.3588 h 2.5226 z m 17.2652,0 h -2.5226 v -2.17063 h -0.062 c -1.1691,1.65489 -2.9737,2.48233 -5.4143,2.48233 -1.9894,0 -3.5736,-0.57958 -4.7528,-1.73984 -1.1793,-1.15973 -1.7692,-2.70855 -1.7692,-4.64647 0,-2.11164 0.654,-3.8082 1.9613,-5.08915 1.3074,-1.28039 3.0585,-1.9206 5.2528,-1.9206 2.1536,0 3.7272,0.69053 4.7222,2.07051 h 0.062 v -7.89564 h 2.5226 z m -2.5226,-5.77534 v -1.88327 c 0,-1.05582 -0.4338,-1.93305 -1.3001,-2.6317 -0.8669,-0.69865 -1.9206,-1.0477 -3.1612,-1.0477 -1.5176,0 -2.7222,0.45512 -3.6144,1.36591 -0.8923,0.91078 -1.3381,2.17279 -1.3381,3.78546 0,1.46386 0.4205,2.62142 1.2614,3.47376 0.8408,0.85234 1.974,1.27878 3.3995,1.27878 1.3841,0 2.5226,-0.40696 3.4149,-1.22195 0.8922,-0.81608 1.338,-1.85513 1.338,-3.11929 z m 8.8638,5.77534 h -2.5226 v -12.77265 h 2.5226 z m 18.3763,-6.43611 c 0,2.02883 -0.7101,3.661 -2.1303,4.89594 -1.4201,1.23495 -3.3247,1.85242 -5.7145,1.85242 -2.3278,0 -4.1863,-0.6007 -5.5757,-1.80209 -1.3895,-1.20139 -2.0841,-2.78323 -2.0841,-4.74604 0,-2.11218 0.7126,-3.78114 2.1382,-5.00796 1.4247,-1.22629 3.3887,-1.83997 5.8913,-1.83997 2.3378,0 4.1683,0.59257 5.491,1.77773 1.3227,1.18407 1.9841,2.80758 1.9841,4.86997 z m -2.584,0.0747 c 0,-1.60456 -0.4385,-2.83571 -1.3154,-3.69238 -0.877,-0.85613 -2.1303,-1.28473 -3.7606,-1.28473 -1.6203,0 -2.9023,0.43888 -3.8452,1.31612 -0.9437,0.87723 -1.4148,2.1138 -1.4148,3.71078 0,1.53042 0.4738,2.72532 1.4227,3.58578 0.9484,0.86045 2.2276,1.29068 3.838,1.29068 1.6403,0 2.897,-0.42427 3.7686,-1.27228 0.8702,-0.84747 1.3067,-2.06564 1.3067,-3.65397 z m -178.05524,-17.49053 -14.5924,11.83317 -9.30695,-5.87005 -3.67647,1.49038 v 14.90754 l 3.67647,1.49092 9.30695,-5.87059 14.5924,11.83317 9.19216,-2.98129 V 313.8596 Z m -23.89935,19.37975 v -8.94442 l 5.5157,4.47275 z m 14.18198,-4.47167 9.71737,-6.12926 v 12.25799 z"
     id="path3832"
     inkscape:connector-curvature="0"
     style="fill:#ffffff;stroke-width:0.60095876" />
  <text
     xml:space="preserve"
     style="font-style:normal;font-weight:normal;font-size:59.3164444px;line-height:1.25;font-family:sans-serif;letter-spacing:0px;word-spacing:0px;fill:#ffffff;fill-opacity:1;stroke:none;stroke-width:1.48291123"
     x="358.33972"
     y="96.235176"
     id="text3846"
     transform="scale(0.62906315,1.5896655)"><tspan
       sodipodi:role="line"
       x="358.33972"
       y="96.235176"
       style="font-style:normal;font-variant:normal;font-weight:normal;font-stretch:normal;font-size:79.08860016px;font-family:'Wide Latin';-inkscape-font-specification:'Wide Latin';fill:#ffffff;stroke-width:1.48291123"
       id="tspan3848">Full open source</tspan></text>
  <text
     xml:space="preserve"
     style="font-style:normal;font-weight:normal;font-size:19.09490967px;line-height:1.25;font-family:sans-serif;letter-spacing:0px;word-spacing:0px;fill:#ffffff;fill-opacity:1;stroke:none;stroke-width:0.47737277"
     x="1099.9128"
     y="206.23137"
     id="text3846-9"
     transform="scale(0.60698455,1.6474884)"><tspan
       sodipodi:role="line"
       x="1099.9128"
       y="206.23137"
       style="font-style:normal;font-variant:normal;font-weight:normal;font-stretch:normal;font-size:25.45987892px;font-family:'Wide Latin';-inkscape-font-specification:'Wide Latin';fill:#ffffff;stroke-width:0.47737277"
       id="tspan3848-9">Made with C# </tspan></text>
</svg>
